<?xml version="1.0" standalone="no"?>
<!DOCTYPE svg PUBLIC "-//W3C//DTD SVG 20010904//EN"
 "http://www.w3.org/TR/2001/REC-SVG-20010904/DTD/svg10.dtd">
<svg version="1.0" xmlns="http://www.w3.org/2000/svg"
 width="260.000000pt" height="260.000000pt" viewBox="0 0 260.000000 260.000000"
 preserveAspectRatio="xMidYMid meet">
<metadata>
Created by potrace 1.14, written by Peter Selinger 2001-2017
</metadata>
<g transform="translate(0.000000,260.000000) scale(0.100000,-0.100000)"
fill="#000000" stroke="none">
<path d="M0 1300 l0 -1300 1300 0 1300 0 0 1300 0 1300 -1300 0 -1300 0 0
-1300z m390 103 c0 -10 -11 -52 -24 -93 -23 -70 -26 -75 -53 -75 -24 0 -29 5
-37 38 -5 20 -13 37 -17 37 -4 0 -11 -17 -16 -37 -8 -33 -12 -38 -38 -38 -28
0 -31 4 -56 85 -15 47 -28 88 -28 93 -1 4 60 7 134 7 122 0 135 -2 135 -17z
m140 -29 c6 -14 10 -37 11 -52 1 -31 5 -22 14 31 4 27 11 37 24 37 21 0 30
-18 32 -63 1 -28 3 -25 13 17 7 27 18 52 25 54 11 4 13 -6 8 -51 -9 -75 -15
-87 -43 -87 -20 0 -24 5 -24 31 0 17 -4 28 -10 24 -5 -3 -10 -17 -10 -31 0
-19 -5 -24 -24 -24 -22 0 -26 7 -39 63 -8 34 -12 65 -10 70 8 15 24 6 33 -19z
m238 10 c16 -11 22 -25 22 -50 0 -53 -15 -74 -54 -74 -38 0 -53 14 -62 58 -5
25 -1 36 19 56 30 30 44 32 75 10z m110 -30 c5 -62 -12 -94 -48 -94 -20 0 -30
5 -30 15 0 8 9 15 20 15 17 0 20 7 20 48 0 27 3 52 7 56 15 15 28 -3 31 -40z
m103 36 c20 -11 27 -50 8 -50 -7 0 -18 8 -25 18 -17 24 -37 4 -32 -34 3 -25 7
-29 33 -29 45 -1 40 -29 -7 -33 -28 -2 -40 2 -52 20 -23 32 -20 65 9 93 27 28
37 30 66 15z m69 -60 c0 -56 -3 -70 -15 -70 -12 0 -15 14 -15 63 0 35 3 67 7
70 17 18 23 1 23 -63z m221 60 c20 -11 27 -50 8 -50 -7 0 -18 8 -25 18 -17 24
-37 4 -32 -34 3 -25 7 -29 33 -29 45 -1 40 -29 -6 -33 -41 -3 -56 10 -65 56
-5 25 -1 36 19 56 29 29 39 31 68 16z m71 -17 c4 -39 36 -43 40 -6 2 17 9 28
18 28 12 0 16 -15 18 -67 3 -63 1 -68 -18 -68 -15 0 -20 6 -20 25 0 18 -5 25
-20 25 -15 0 -20 -7 -20 -25 0 -16 -6 -25 -15 -25 -12 0 -15 14 -15 63 0 35 3
67 7 70 13 14 22 6 25 -20z m215 21 c13 -4 20 -11 16 -20 -3 -9 -13 -12 -29
-8 -33 8 -31 -12 4 -28 31 -15 40 -49 18 -67 -19 -16 -78 -10 -84 8 -4 11 2
13 27 8 41 -8 41 12 1 35 -33 19 -38 39 -14 62 17 17 27 19 61 10z m75 -26 l3
-33 18 33 c10 17 24 32 32 32 18 0 18 -8 1 -39 -11 -20 -11 -28 0 -50 8 -14
14 -32 14 -38 0 -23 -30 -14 -40 12 -5 14 -14 25 -20 25 -5 0 -10 -11 -10 -25
0 -16 -6 -25 -15 -25 -12 0 -15 14 -15 63 0 35 3 67 7 70 14 14 22 6 25 -25z
m178 12 c41 -41 14 -120 -40 -120 -38 0 -60 24 -60 66 0 38 29 74 60 74 11 0
29 -9 40 -20z m128 -7 c7 -10 9 -24 6 -33 -9 -20 -9 -41 1 -62 5 -14 2 -18
-13 -18 -13 0 -22 9 -26 25 -4 14 -11 25 -16 25 -6 0 -10 -11 -10 -25 0 -16
-6 -25 -15 -25 -12 0 -15 14 -15 63 0 35 3 67 7 71 12 12 67 -3 81 -21z m62
-34 c4 -39 9 -54 20 -54 11 0 16 15 20 54 3 31 10 56 18 59 16 5 17 -109 0
-126 -14 -14 -57 -16 -77 -3 -15 9 -27 91 -17 116 12 32 31 8 36 -46z m180 41
c11 -11 20 -23 20 -28 0 -18 -33 -52 -51 -52 -12 0 -19 -7 -19 -20 0 -11 -7
-20 -15 -20 -12 0 -15 14 -15 70 l0 70 30 0 c17 0 39 -9 50 -20z m109 11 c21
-13 5 -29 -24 -23 -34 6 -32 -13 4 -28 35 -14 45 -34 30 -61 -8 -16 -19 -19
-50 -17 -41 3 -51 23 -12 23 36 1 37 12 4 30 -22 11 -31 23 -31 40 0 36 46 57
79 36z m69 -21 c4 -23 4 -23 27 6 28 35 46 24 24 -14 -14 -25 -14 -30 3 -57
23 -38 23 -45 -1 -45 -12 0 -21 9 -25 25 -4 14 -11 25 -16 25 -6 0 -10 -11
-10 -25 0 -18 -5 -25 -20 -25 -18 0 -20 7 -20 63 0 35 3 67 7 71 12 12 28 0
31 -24z m122 -40 c0 -63 -2 -70 -20 -70 -18 0 -20 7 -20 63 0 66 4 77 27 77
10 0 13 -18 13 -70z m-1310 50 c0 -5 -11 -10 -25 -10 -16 0 -25 -6 -25 -15 0
-8 9 -15 20 -15 11 0 20 -7 20 -15 0 -8 -9 -15 -20 -15 -11 0 -20 -4 -20 -10
0 -5 11 -10 25 -10 16 0 25 -6 25 -16 0 -12 -9 -14 -42 -12 l-43 3 -3 63 -3
62 46 0 c25 0 45 -4 45 -10z"/>
<path d="M714 1356 c-9 -25 0 -71 15 -71 21 0 35 29 27 58 -7 29 -33 36 -42
13z"/>
<path d="M1751 1348 c-10 -28 1 -63 20 -63 10 0 14 12 14 39 0 45 -21 60 -34
24z"/>
<path d="M1880 1349 c0 -24 23 -21 28 4 2 10 -3 17 -12 17 -10 0 -16 -9 -16
-21z"/>
<path d="M2130 1351 c0 -12 6 -21 16 -21 9 0 14 7 12 17 -5 25 -28 28 -28 4z"/>
</g>
</svg>
